<svg width="38" height="38" viewBox="0 0 38 38" fill="none" xmlns="http://www.w3.org/2000/svg">
<rect x="-0.5" y="0.5" width="36.6" height="36.6" rx="18.3" transform="matrix(-1 0 0 1 36.5996 0)" fill="#F2FEFF" stroke="#5669FF"/>
<path d="M12.0763 18.0929C11.6858 18.4835 11.6858 19.1166 12.0763 19.5072L18.4402 25.8711C18.8308 26.2616 19.4639 26.2616 19.8545 25.8711C20.245 25.4806 20.245 24.8474 19.8545 24.4569L14.1976 18.8L19.8545 13.1432C20.245 12.7527 20.245 12.1195 19.8545 11.729C19.4639 11.3385 18.8308 11.3385 18.4402 11.729L12.0763 18.0929ZM25.5674 18.8L25.5674 17.8L12.7834 17.8L12.7834 18.8L12.7834 19.8L25.5674 19.8L25.5674 18.8Z" fill="#5669FF"/>
</svg>
