<svg width="38" height="38" viewBox="0 0 38 38" fill="none" xmlns="http://www.w3.org/2000/svg">
<rect x="0.900391" y="0.5" width="36.6" height="36.6" rx="18.3" fill="#F2FEFF" stroke="#5669FF"/>
<path d="M25.9237 18.0929C26.3142 18.4835 26.3142 19.1166 25.9237 19.5072L19.5598 25.8711C19.1692 26.2616 18.5361 26.2616 18.1455 25.8711C17.755 25.4806 17.755 24.8474 18.1455 24.4569L23.8024 18.8L18.1455 13.1432C17.755 12.7527 17.755 12.1195 18.1455 11.729C18.5361 11.3385 19.1692 11.3385 19.5598 11.729L25.9237 18.0929ZM12.4326 18.8L12.4326 17.8L25.2166 17.8L25.2166 18.8L25.2166 19.8L12.4326 19.8L12.4326 18.8Z" fill="#5669FF"/>
</svg>
